# xmcd
#
# Track frame offsets: 
#        150
#        41693
#        74116
#        97161
#        133063
#        182578
#        220795
#        253473
#        286286
#        319260
#
# Disc length: 4745 seconds
#
# Revision: 2
# Processed by: cddbd v1.5.2PL0 Copyright (c) Steve Scherf et al.
# Submitted via: ExactAudioCopy v0.99pb5
#
DISCID=a712870a
DTITLE=Armind - Armind - The Collected 12" Mixes Vol.1 CD1
DYEAR=1900
DGENRE=Trance
TTITLE0=Motorcycle - As The Rush Comes (Gabriel and Dresden Sweeping Str
TTITLE0=ings Mix)
TTITLE1=M.I.K.E. - Turn Out The Lights
TTITLE2=M.I.K.E. - Turn Out The Lights (Hiver and Hammer Remix)
TTITLE3=Mark Otten - Mushroom Therapy (Lightscape Mix)
TTITLE4=Motorcycle - As The Rush Comes (Markus Schulz Coldharbour Remi
TTITLE4=x)
TTITLE5=Mark Otten - Tranquility
TTITLE6=M.I.K.E. pres. Fascinated - Totally Fascinated (M.I.K.E.'s Tot
TTITLE6=ally Mix)
TTITLE7=Arctic Quest - Offbeat
TTITLE8=Armin vs. M.I.K.E. - Intruder
TTITLE9=Ridgewalkers feat. El - Find (Andy Moor Remix)
EXTD=
EXTT0=
EXTT1=
EXTT2=
EXTT3=
EXTT4=
EXTT5=
EXTT6=
EXTT7=
EXTT8=
EXTT9=
PLAYORDER=
